<mxfile host="app.diagrams.net" agent="Mozilla/5.0 (iPhone; CPU iPhone OS 17_5_1 like Mac OS X) AppleWebKit/605.1.15 (KHTML, like Gecko) Version/17.5 Mobile/15E148 Safari/604.1" version="24.7.6">
  <diagram name="Страница — 1" id="m4uQckrU429rgEVroSDA">
    <mxGraphModel dx="682" dy="1410" grid="0" gridSize="10" guides="1" tooltips="1" connect="1" arrows="1" fold="1" page="0" pageScale="1" pageWidth="827" pageHeight="1169" math="0" shadow="0">
      <root>
        <mxCell id="0" />
        <mxCell id="1" parent="0" />
        <mxCell id="uJTyRdZboaND8xs_WRIH-3" value="" style="edgeStyle=orthogonalEdgeStyle;rounded=0;orthogonalLoop=1;jettySize=auto;html=1;fontSize=12;strokeColor=default;strokeWidth=4;align=center;verticalAlign=middle;fontFamily=Helvetica;fontColor=default;labelBackgroundColor=default;endArrow=none;endFill=0;curved=1;" edge="1" parent="1" source="uJTyRdZboaND8xs_WRIH-1" target="uJTyRdZboaND8xs_WRIH-2">
          <mxGeometry relative="1" as="geometry" />
        </mxCell>
        <mxCell id="uJTyRdZboaND8xs_WRIH-1" value="" style="whiteSpace=wrap;html=1;" vertex="1" parent="1">
          <mxGeometry x="91" y="137" width="228" height="125" as="geometry" />
        </mxCell>
        <mxCell id="uJTyRdZboaND8xs_WRIH-8" value="" style="edgeStyle=none;curved=1;rounded=0;orthogonalLoop=1;jettySize=auto;html=1;fontSize=12;startSize=8;endSize=8;" edge="1" parent="1" source="uJTyRdZboaND8xs_WRIH-2" target="uJTyRdZboaND8xs_WRIH-7">
          <mxGeometry relative="1" as="geometry" />
        </mxCell>
        <mxCell id="uJTyRdZboaND8xs_WRIH-2" value="" style="whiteSpace=wrap;html=1;" vertex="1" parent="1">
          <mxGeometry x="145" y="355" width="120" height="60" as="geometry" />
        </mxCell>
        <mxCell id="uJTyRdZboaND8xs_WRIH-6" style="edgeStyle=none;curved=1;rounded=0;orthogonalLoop=1;jettySize=auto;html=1;fontSize=12;endArrow=none;endFill=0;strokeWidth=4;" edge="1" parent="1" source="uJTyRdZboaND8xs_WRIH-4" target="uJTyRdZboaND8xs_WRIH-1">
          <mxGeometry relative="1" as="geometry" />
        </mxCell>
        <mxCell id="uJTyRdZboaND8xs_WRIH-4" value="" style="ellipse;whiteSpace=wrap;html=1;" vertex="1" parent="1">
          <mxGeometry x="178" y="-7" width="80" height="80" as="geometry" />
        </mxCell>
        <mxCell id="uJTyRdZboaND8xs_WRIH-7" value="" style="ellipse;whiteSpace=wrap;html=1;" vertex="1" parent="1">
          <mxGeometry x="165" y="525" width="80" height="80" as="geometry" />
        </mxCell>
      </root>
    </mxGraphModel>
  </diagram>
</mxfile>
